<?xml version="1.0" encoding="utf-8"?>
<!-- Generator: Adobe Illustrator 23.0.5, SVG Export Plug-In . SVG Version: 6.00 Build 0)  -->
<svg version="1.1" id="Layer_1" xmlns="http://www.w3.org/2000/svg" xmlns:xlink="http://www.w3.org/1999/xlink" fill="#6fa188" viewBox="128 128 256 256"
	>
<g>
	<path d="M277.26,242.08l-1.13,0.93l-1.82,1.52l-18.29,15.16L235,242.24c0.8-1.12,1.56-2.24,2.3-3.35
		c18.01-27.33,18.73-52.93,18.73-56.81c0.04,3.9,1.07,29.48,19.03,56.75C275.77,239.91,276.5,240.99,277.26,242.08z"/>
	<polygon points="406.29,145.46 406.29,184.84 309.74,264.88 255.99,309.45 105.71,184.84 105.71,145.46 223.31,242.98 
		255.99,270.08 288.94,242.78 288.94,242.76 	"/>
	<polygon points="275.84,337.99 275.84,348.9 255.99,366.54 236.16,348.9 236.16,337.99 255.99,354.44 256.01,354.44 	"/>
	<polygon points="275.84,271.95 275.84,330.26 255.99,346.18 236.16,330.1 236.16,271.95 	"/>
	<g>
		<g>
			<polygon points="227.68,297.77 227.68,323.29 132.05,243.98 132.05,218.45 			"/>
			<polygon points="227.68,330.94 227.68,341.02 208.41,323.9 208.41,314.96 			"/>
		</g>
		<g>
			<polygon points="379.95,218.45 379.95,243.98 284.32,323.29 284.32,297.77 			"/>
			<polygon points="303.59,314.96 303.59,323.9 284.32,341.02 284.32,330.94 			"/>
		</g>
	</g>
</g>
</svg>
