<?xml version="1.0" encoding="UTF-8"?>
<svg xmlns="http://www.w3.org/2000/svg" xmlns:xlink="http://www.w3.org/1999/xlink" version="1.1">
<circle cx="16" cy="16" r="16" fill="black"/>
<g id="surface1" transform="scale(0.35) translate(-18, -10)" fill="white">
<path d="M 69.316406 60.519531 L 69.03125 60.753906 L 68.578125 61.132812 L 64.003906 64.921875 L 58.75 60.558594 C 58.949219 60.28125 59.140625 60 59.324219 59.722656 C 63.828125 52.890625 64.007812 46.488281 64.007812 45.519531 C 64.015625 46.496094 64.273438 52.890625 68.765625 59.707031 C 68.941406 59.976562 69.125 60.246094 69.316406 60.519531 Z M 69.316406 60.519531 "/>
<path d="M 101.574219 36.363281 L 101.574219 46.210938 L 77.433594 66.21875 L 63.996094 77.363281 L 26.425781 46.210938 L 26.425781 36.363281 L 55.828125 60.746094 L 63.996094 67.519531 L 72.234375 60.695312 L 72.234375 60.691406 Z M 101.574219 36.363281 "/>
<path d="M 68.960938 84.496094 L 68.960938 87.226562 L 63.996094 91.636719 L 59.039062 87.226562 L 59.039062 84.496094 L 63.996094 88.609375 L 64.003906 88.609375 Z M 68.960938 84.496094 "/>
<path d="M 68.960938 67.988281 L 68.960938 82.566406 L 63.996094 86.546875 L 59.039062 82.523438 L 59.039062 67.988281 Z M 68.960938 67.988281 "/>
<path d="M 56.921875 74.441406 L 56.921875 80.824219 L 33.011719 60.996094 L 33.011719 54.613281 Z M 56.921875 74.441406 "/>
<path d="M 56.921875 82.734375 L 56.921875 85.253906 L 52.101562 80.976562 L 52.101562 78.738281 Z M 56.921875 82.734375 "/>
<path d="M 94.988281 54.613281 L 94.988281 60.996094 L 71.078125 80.824219 L 71.078125 74.441406 Z M 94.988281 54.613281 "/>
<path d="M 75.898438 78.738281 L 75.898438 80.976562 L 71.078125 85.253906 L 71.078125 82.734375 Z M 75.898438 78.738281 "/>
</g>
</svg>
